#!OML:ASF G:\JayActor3\Patient Classification 1\Patient 1\Session 5\male.ASF
:FULLY-SPECIFIED
:DEGREES
1013
root -34.3886 16.8318 -5.65537 -588.277 91.0947 -604.396
lowerback 35.394 -2.96947 2.27006
upperback 9.36082 -2.06251 -2.27206
thorax -7.52828 -0.490653 -2.89581
lowerneck -1.01118 0.0925603 2.16291
upperneck -19.0474 1.14405 2.36026
head -5.58442 0.509051 0.303598
rclavicle -3.97569e-015 4.37326e-015
rhumerus -30.895 -1.66236 -89.187
rradius 48.882
rwrist -4.19177
rhand -20.8011 -10.5103
rfingers 7.12502
rthumb 5.56639 -40.4172
lclavicle -3.97569e-015 4.37326e-015
lhumerus -25.8551 6.17795 81.3445
lradius 34.5095
lwrist 20.9828
lhand -22.6178 15.6148
lfingers 7.12502
lthumb 3.81223 45.5604
rfemur -59.5036 1.73747 22.6807
rtibia 59.8809
rfoot 12.6828 -6.27641
rtoes 0.702586
lfemur -42.148 10.1743 -18.5957
ltibia 75.8621
lfoot 21.574 -10.8202
ltoes -16.0813
1014
root -34.5057 16.8452 -5.6689 -587.923 91.1423 -604.165
lowerback 35.3214 -2.95449 2.29088
upperback 9.33895 -2.04404 -2.26524
thorax -7.52535 -0.48509 -2.90714
lowerneck -1.00217 0.0913899 2.13909
upperneck -19.073 1.14843 2.38998
head -5.59419 0.510986 0.316622
rclavicle -1.90833e-014 -7.95139e-015
rhumerus -30.9273 -1.61418 -89.2367
rradius 48.9936
rwrist -4.22624
rhand -20.7888 -10.5128
rfingers 7.12502
rthumb 5.57826 -40.4194
lclavicle -1.90833e-014 -7.95139e-015
lhumerus -25.7871 6.15366 81.3652
lradius 34.6083
lwrist 21.0623
lhand -22.6197 15.5515
lfingers 7.12502
lthumb 3.81033 45.4972
rfemur -59.6318 1.93962 22.5054
rtibia 59.1122
rfoot 12.9391 -6.30163
rtoes 0.776223
lfemur -41.4979 10.1986 -18.8528
ltibia 74.0808
lfoot 21.2971 -9.90909
ltoes -15.5353
1015
root -34.6243 16.8579 -5.68306 -587.775 91.1891 -604.126
lowerback 35.1794 -2.93904 2.31286
upperback 9.40548 -2.0261 -2.26347
thorax -7.5276 -0.479717 -2.91984
lowerneck -0.974563 0.0891534 2.11608
upperneck -19.1093 1.15261 2.42176
head -5.6105 0.512282 0.330097
rclavicle 1.51076e-014 2.90226e-014
rhumerus -30.9585 -1.56786 -89.287
rradius 49.096
rwrist -4.2469
rhand -20.7799 -10.5147
rfingers 7.12502
rthumb 5.58684 -40.421
lclavicle 1.51076e-014 2.90226e-014
lhumerus -25.7196 6.12332 81.3837
lradius 34.6929
lwrist 21.1054
lhand -22.6362 15.5107
lfingers 7.12502
lthumb 3.79438 45.4567
rfemur -59.7427 2.13865 22.3339
rtibia 58.3244
rfoot 13.1957 -6.31216
rtoes 0.673672
lfemur -40.8522 10.1819 -19.0818
ltibia 72.3298
lfoot 20.7804 -9.17795
ltoes -15.6535
1016
root -34.7443 16.8701 -5.69761 -587.789 91.2289 -604.236
lowerback 35.1356 -2.92615 2.32866
upperback 9.38793 -2.00988 -2.26035
thorax -7.53047 -0.474329 -2.93135
lowerneck -0.937832 0.0838578 2.09433
upperneck -19.1428 1.15242 2.45402
head -5.62748 0.511051 0.343702
rclavicle 1.82882e-014 3.22031e-014
rhumerus -30.99 -1.52213 -89.3353
rradius 49.195
rwrist -4.261
rhand -20.7749 -10.5216
rfingers 7.12502
rthumb 5.59168 -40.4279
lclavicle 1.82882e-014 3.22031e-014
lhumerus -25.6495 6.08211 81.4036
lradius 34.7581
lwrist 21.1165
lhand -22.6568 15.4513
lfingers 7.12502
lthumb 3.77455 45.3976
rfemur -59.8368 2.329 22.1626
rtibia 57.5167
rfoot 13.4547 -6.30272
rtoes 0.392173
lfemur -40.2233 10.1229 -19.284
ltibia 70.696
lfoot 19.9276 -8.73173
ltoes -16.7863
1017
root -34.8656 16.8814 -5.71279 -587.577 91.2528 -604.1
lowerback 35.1033 -2.91405 2.33164
upperback 9.37506 -1.99821 -2.26427
thorax -7.53254 -0.47036 -2.9417
lowerneck -0.898975 0.0787449 2.08291
upperneck -19.1644 1.1508 2.47905
head -5.641 0.508721 0.353407
rclavicle -1.27222e-014 -2.54444e-014
rhumerus -31.021 -1.47806 -89.3836
rradius 49.2873
rwrist -4.27227
rhand -20.7706 -10.5141
rfingers 7.12502
rthumb 5.59579 -40.4202
lclavicle -1.27222e-014 -2.54444e-014
lhumerus -25.5759 6.03965 81.4218
lradius 34.8028
lwrist 21.0935
lhand -22.6907 15.4317
lfingers 7.12502
lthumb 3.74183 45.3786
rfemur -59.8957 2.50189 21.9797
rtibia 56.6948
rfoot 13.6787 -6.31205
rtoes 0.222638
lfemur -39.6265 10.038 -19.4813
ltibia 69.263
lfoot 18.7642 -8.56863
ltoes -18.7978
1018
root -34.9883 16.8916 -5.72837 -587.03 91.2633 -603.618
lowerback 35.0725 -2.89874 2.31455
upperback 9.36723 -1.98874 -2.27093
thorax -7.52932 -0.466912 -2.94354
lowerneck -0.865077 0.073895 2.07946
upperneck -19.1688 1.14708 2.49573
head -5.64824 0.505305 0.359311
rclavicle 2.38542e-014 2.8625e-014
rhumerus -31.0498 -1.42394 -89.4292
rradius 49.3813
rwrist -4.28626
rhand -20.7655 -10.5169
rfingers 7.12502
rthumb 5.60072 -40.4229
lclavicle 2.38542e-014 2.8625e-014
lhumerus -25.5078 5.99318 81.4409
lradius 34.8391
lwrist 21.0563
lhand -22.7275 15.4278
lfingers 7.12502
lthumb 3.70621 45.3753
rfemur -59.9308 2.66441 21.7848
rtibia 55.8633
rfoot 13.8637 -6.36924
rtoes 0.242608
lfemur -39.0987 9.95601 -19.6868
ltibia 68.0702
lfoot 17.3781 -8.59869
ltoes -21.3445
1019
root -35.1127 16.9002 -5.74457 -586.161 91.2581 -602.811
lowerback 35.0343 -2.88264 2.27828
upperback 9.36666 -1.98435 -2.28036
thorax -7.51538 -0.465298 -2.9364
lowerneck -0.842327 0.0720309 2.08554
upperneck -19.1597 1.14464 2.49954
head -5.64923 0.502845 0.359575
rclavicle -1.82882e-014 -1.94809e-014
rhumerus -31.0646 -1.36514 -89.4706
rradius 49.4642
rwrist -4.30099
rhand -20.7658 -10.506
rfingers 7.12502
rthumb 5.60044 -40.412
lclavicle -1.82882e-014 -1.94809e-014
lhumerus -25.4454 5.94282 81.4626
lradius 34.8791
lwrist 21.0124
lhand -22.7576 15.4302
lfingers 7.12502
lthumb 3.67715 45.3782
rfemur -59.9548 2.81525 21.5742
rtibia 55.0323
rfoot 14.0106 -6.49696
rtoes 0.519263
lfemur -38.6676 9.90293 -19.9228
ltibia 67.1036
lfoot 15.8655 -8.67647
ltoes -24.0386
